Coordinates
version=1
nRows=24
nColumns=22
inDegrees=yes

Units are S.I. units (second, meters, Newtons, ...)
If the header above contains a line with 'inDegrees', this indicates whether rotational values are in degrees (yes) or radians (no).

endheader
time	pelvis_tilt	pelvis_list	pelvis_rotation	pelvis_tx	pelvis_ty	pelvis_tz	hip_flexion_r	hip_adduction_r	hip_rotation_r	knee_angle_r	ankle_angle_r	subtalar_angle_r	hip_flexion_l	hip_adduction_l	hip_rotation_l	knee_angle_l	ankle_angle_l	subtalar_angle_l	lumbar_extension	lumbar_bending	lumbar_rotation
      1.21000000	     -5.54579246	     -7.67160898	      2.85768397	     -1.06745508	      0.97470501	      0.13598133	      9.30019587	      7.91851615	     -3.86198475	    -15.69558105	     10.29341873	      1.46537650	      8.84120699	     -6.40133441	      8.15041576	    -13.76826247	     13.16574816	     -2.90587103	      3.18706701	      5.75353975	     -5.85110952
      1.22000000	     -5.62334411	     -7.69182146	      2.90506765	     -1.06673772	      0.97453566	      0.13504582	      9.34274953	      7.87306550	     -3.91335187	    -15.71002550	     10.33522442	      1.50194904	      8.88873805	     -6.35159148	      8.23215645	    -13.77992727	     13.21138079	     -2.99781811	      3.17587817	      5.73765485	     -5.85900482
      1.23000000	     -5.69454285	     -7.71191593	      2.95799664	     -1.06598103	      0.97436725	      0.13405785	      9.37821286	      7.82374490	     -3.97034061	    -15.72852070	     10.38194322	      1.53645357	      8.93138098	     -6.29828741	      8.31628918	    -13.79740690	     13.25819779	     -3.08005649	      3.15743409	      5.72507603	     -5.86363103
      1.24000000	     -5.75940840	     -7.73191461	      3.01993662	     -1.06517974	      0.97419544	      0.13301685	      9.40618189	      7.77030731	     -4.03622816	    -15.75078453	     10.43364970	      1.56895825	      8.96916788	     -6.24071827	      8.40960117	    -13.82198238	     13.30962579	     -3.15462061	      3.13210166	      5.71360897	     -5.87086832
      1.25000000	     -5.83009055	     -7.75780716	      3.10742122	     -1.06434912	      0.97400588	      0.13192372	      9.43934435	      7.71569881	     -4.14035631	    -15.77130723	     10.49192456	      1.62609977	      9.02428652	     -6.18345873	      8.52576582	    -13.85931266	     13.33195428	     -3.26072299	      3.11384060	      5.70281059	     -5.89262574
      1.26000000	     -5.87169275	     -7.78023252	      3.18401511	     -1.06345873	      0.97383905	      0.13082003	      9.43829950	      7.66401344	     -4.20030029	    -15.79579999	     10.55102323	      1.64830501	      9.04032551	     -6.12644821	      8.62313230	    -13.89466756	     13.41486279	     -3.31172030	      3.06104358	      5.69127944	     -5.89772320
      1.27000000	     -5.90213636	     -7.80390095	      3.28811420	     -1.06250883	      0.97367454	      0.12964408	      9.42387010	      7.60575332	     -4.29964903	    -15.82241093	     10.62047700	      1.67513203	      9.05265651	     -6.06430429	      8.75112820	    -13.94401486	     13.48218083	     -3.36082714	      3.00213245	      5.68033565	     -5.91950763
      1.28000000	     -5.92155660	     -7.82939494	      3.40472703	     -1.06149930	      0.97351471	      0.12843152	      9.39790014	      7.54756255	     -4.40939275	    -15.85437569	     10.69479774	      1.70537276	      9.05263512	     -6.00316608	      8.88659957	    -13.99513613	     13.54808927	     -3.40420006	      2.93454564	      5.67075037	     -5.94750037
      1.29000000	     -5.92801893	     -7.85278587	      3.53384520	     -1.06042733	      0.97336011	      0.12717957	      9.36428343	      7.48487389	     -4.53113826	    -15.90371357	     10.77947985	      1.73970728	      9.03486964	     -5.93927721	      9.02685363	    -14.04277850	     13.61299792	     -3.44051095	      2.85627420	      5.65822698	     -5.98196504
      1.30000000	     -5.92385333	     -7.87036113	      3.66863380	     -1.05930397	      0.97320420	      0.12589078	      9.33444679	      7.41308630	     -4.65660672	    -15.98545029	     10.87781560	      1.77421843	      8.99847588	     -5.87058942	      9.16370356	    -14.08337430	     13.68106716	     -3.46718171	      2.76581120	      5.64145437	     -6.01530326
      1.31000000	     -5.90702532	     -7.87835299	      3.81865388	     -1.05810034	      0.97304839	      0.12457944	      9.31554937	      7.32922643	     -4.79670775	    -16.12051718	     10.99478471	      1.81630361	      8.93843246	     -5.79401532	      9.30059585	    -14.11202341	     13.74481446	     -3.48686603	      2.67008333	      5.60912434	     -6.05723626
      1.32000000	     -5.88314895	     -7.87520678	      3.96834808	     -1.05685726	      0.97288021	      0.12324156	      9.32652060	      7.22994691	     -4.93702791	    -16.32819849	     11.12971783	      1.86067546	      8.85891642	     -5.70904414	      9.42470843	    -14.12519762	     13.81279815	     -3.49934662	      2.56484796	      5.56811016	     -6.09668922
      1.33000000	     -5.85368994	     -7.83813324	      4.13974166	     -1.05554380	      0.97270402	      0.12184875	      9.36885986	      7.08708905	     -5.09112648	    -16.61598778	     11.29179234	      1.96082111	      8.75813991	     -5.58616992	      9.56190917	    -14.11901528	     13.84421947	     -3.50602536	      2.46090899	      5.48825987	     -6.18879125
      1.34000000	     -5.82486167	     -7.79117554	      4.29151673	     -1.05418647	      0.97249201	      0.12047504	      9.47679910	      6.93122532	     -5.23699969	    -17.02608904	     11.48254500	      2.05275569	      8.64467740	     -5.46025910	      9.65892205	    -14.10267270	     13.90904277	     -3.50760258	      2.35814622	      5.39810126	     -6.23912948
      1.35000000	     -5.79832249	     -7.71828706	      4.44034550	     -1.05278540	      0.97224372	      0.11909652	      9.65705615	      6.74133130	     -5.38852161	    -17.56877908	     11.69805707	      2.14318650	      8.51796374	     -5.30964024	      9.74035499	    -14.07044300	     13.97614537	     -3.50199604	      2.25868980	      5.27816334	     -6.28808422
      1.36000000	     -5.77861914	     -7.61263835	      4.58430796	     -1.05134916	      0.97195380	      0.11772414	      9.92294805	      6.50956854	     -5.54227451	    -18.25932451	     11.93667941	      2.23960897	      8.38611895	     -5.12648326	      9.80896811	    -14.02752321	     14.04186829	     -3.49190579	      2.16744505	      5.12097040	     -6.33910332
      1.37000000	     -5.80640759	     -7.48536693	      4.71364905	     -1.04991836	      0.97157378	      0.11637518	     10.34148738	      6.24122501	     -5.69604668	    -19.13132433	     12.17638016	      2.42825187	      8.29303304	     -4.91717159	      9.88899787	    -13.97432948	     14.08499033	     -3.47579412	      2.12647815	      4.93610918	     -6.36846273
      1.38000000	     -5.81497717	     -7.31983109	      4.83505599	     -1.04841062	      0.97116959	      0.11505986	     10.82297735	      5.92907403	     -5.85110001	    -20.16256121	     12.43593862	      2.55043005	      8.16751780	     -4.67328237	      9.93166316	    -13.92025401	     14.15809504	     -3.46930206	      2.06527012	      4.70947697	     -6.41536028
      1.39000000	     -5.81685885	     -7.12593771	      4.94543469	     -1.04685720	      0.97073828	      0.11378591	     11.39083465	      5.58191590	     -6.00747716	    -21.36257936	     12.68366162	      2.63117360	      8.02145092	     -4.40223185	      9.97038928	    -13.85941933	     14.22986962	     -3.47082218	      1.99268560	      4.45263023	     -6.45288993
      1.40000000	     -5.85284349	     -6.92100995	      5.04188386	     -1.04526728	      0.97021911	      0.11257804	     12.09406192	      5.21229225	     -6.17218526	    -22.73496126	     12.89627417	      2.75485683	      7.91552598	     -4.11890824	      9.99044802	    -13.81794630	     14.34221183	     -3.50041117	      1.95802727	      4.18090930	     -6.50586028
      1.41000000	     -5.78570638	     -6.67486322	      5.13709151	     -1.04351383	      0.96981529	      0.11140454	     12.74956736	      4.80451997	     -6.35300421	    -24.22888357	     13.07987527	      2.75925665	      7.65745598	     -3.80715715	     10.01020805	    -13.73257842	     14.45027099	     -3.51767102	      1.80911937	      3.87493525	     -6.56365695
      1.42000000	     -5.84627123	     -6.45009250	      5.20290312	     -1.04179014	      0.96923807	      0.11033811	     13.65013988	      4.40123569	     -6.53425329	    -25.89120231	     13.18769256	      2.86815277	      7.54597813	     -3.50784207	     10.05111927	    -13.66736498	     14.51728376	     -3.58716213	      1.80147092	      3.58132662	     -6.60439850
      1.43000000	     -5.75005979	     -6.20659868	      5.28683320	     -1.03985061	      0.96886046	      0.10930313	     14.41154795	      3.98898274	     -6.74704840	    -27.60164546	     13.25903954	      2.88284656	      7.23310568	     -3.21097906	     10.07888523	    -13.56710526	     14.62904509	     -3.62665592	      1.62315944	      3.28297793	     -6.67639781
      1.44000000	     -5.72507446	     -5.99517779	      5.35019395	     -1.03785359	      0.96841089	      0.10838139	     15.31070644	      3.60428667	     -6.96049082	    -29.38381745	     13.28705749	      2.94590624	      6.98685363	     -2.94899467	     10.11733038	    -13.45441355	     14.68653900	     -3.70604465	      1.53112371	      3.01130655	     -6.73982296
